# xmcd CD database file
#
# Track frame offsets:
#	150
#	15684
#	31418
#	52531
#	75679
#	95743
#	118911
#	132006
#	146667
#	159710
#	168681
#	185928
#	219657
#	249269
#
# Disc length: 3655 seconds
#
# Revision: 0
# Processed by: cddbd v1.5.2PL0 Copyright (c) Steve Scherf et al.
# Submitted via: CDex 1.81
#
DISCID=c50e450e
DTITLE=Dolly Parton - Live From Glastonbury 2014
DYEAR=1900
DGENRE=Country
TTITLE0=Fire Medley: Baby I'm Burning - Great Balls of Fire - This Girl Is On Fire (Live)
TTITLE1=Why'd You Come in Here Lookin' Like That (Live)
TTITLE2=Jolene (Live)
TTITLE3=Blue Smoke (Live)
TTITLE4=Coat of Many Colors (Live)
TTITLE5=Rocky Top (Live)
TTITLE6=Mud Song (Live)
TTITLE7=Banks of the Ohio (Live)
TTITLE8=Here You Come Again (Live)
TTITLE9=Two Doors Down (Live)
TTITLE10=Islands in the Stream (Live)
TTITLE11=9 to 5 (Live)
TTITLE12=Lay Your Hands On Me (Live)
TTITLE13=I Will Always Love You (Live)
EXTD=
EXTT0=
EXTT1=
EXTT2=
EXTT3=
EXTT4=
EXTT5=
EXTT6=
EXTT7=
EXTT8=
EXTT9=
EXTT10=
EXTT11=
EXTT12=
EXTT13=
PLAYORDER=
